# xmcd
#
# Track frame offsets: 
#        182
#        13982
#        29627
#        50492
#        71155
#        85247
#        96177
#        115422
#        129260
#        143325
#        166575
#        179935
#        194677
#        219935
#
# Disc length: 2970 seconds
#
# Revision: 2
# Processed by: cddbd v1.5.1PL2 Copyright (c) Steve Scherf et al.
# Submitted via: ExactAudioCopy v0.95b4
#
DISCID=cc0b980e
DTITLE=Four Bitchin' Babes - Buy Me Bring Me Take Me Don't Mess My Hai
DTITLE=r-Life According to 4 Bitchin' Babes Volume 2
DYEAR=1993
DGENRE=Country
TTITLE0=Oh Great Spirit
TTITLE1=Bald Headed Men
TTITLE2=Save Me A Seat (Homeward Bound)
TTITLE3=From A Distance
TTITLE4=Sealed With A Kiss
TTITLE5=Butter
TTITLE6=Graceful Man
TTITLE7=Try Love
TTITLE8=Take Me Out to Eat
TTITLE9=As Close To Flying
TTITLE10=(Fun to Be) Perfect
TTITLE11=The Choice
TTITLE12=Good Night, New York
TTITLE13=Theme from Jeopardy
EXTD=
EXTT0=
EXTT1=
EXTT2=
EXTT3=
EXTT4=
EXTT5=
EXTT6=
EXTT7=
EXTT8=
EXTT9=
EXTT10=
EXTT11=
EXTT12=
EXTT13=
PLAYORDER=
